<?xml version="1.0" standalone="no"?>
<!DOCTYPE svg PUBLIC "-//W3C//DTD SVG 20010904//EN"
 "http://www.w3.org/TR/2001/REC-SVG-20010904/DTD/svg10.dtd">
<svg version="1.0" xmlns="http://www.w3.org/2000/svg"
 width="4000.000000pt" height="4000.000000pt" viewBox="0 0 4000.000000 4000.000000"
 preserveAspectRatio="xMidYMid meet">
<metadata>
Created by potrace 1.11, written by Peter Selinger 2001-2013
</metadata>
<g transform="translate(0.000000,4000.000000) scale(0.100000,-0.100000)"
fill="#000000" stroke="none">
<path d="M19448 39995 c-2 -2 -88 -6 -193 -10 -218 -8 -285 -11 -445 -20 -200
-12 -273 -17 -430 -30 -30 -3 -84 -7 -120 -10 -36 -3 -83 -7 -105 -9 -22 -3
-71 -7 -110 -10 -38 -4 -86 -8 -105 -11 -40 -4 -110 -12 -190 -20 -30 -3 -71
-8 -91 -11 -20 -2 -56 -7 -80 -9 -24 -2 -60 -7 -79 -10 -19 -3 -57 -8 -85 -11
-27 -3 -61 -7 -75 -9 -47 -7 -113 -17 -215 -30 -27 -4 -62 -8 -77 -11 -15 -2
-99 -15 -185 -29 -152 -24 -300 -49 -353 -59 -14 -3 -63 -12 -110 -20 -47 -8
-94 -17 -105 -19 -11 -3 -38 -8 -60 -12 -22 -4 -51 -9 -65 -12 -30 -5 -456
-93 -485 -99 -11 -3 -31 -7 -45 -10 -326 -67 -1031 -254 -1490 -394 -36 -11
-72 -22 -81 -24 -48 -12 -498 -161 -719 -239 -280 -98 -805 -299 -927 -354
-28 -12 -55 -23 -58 -23 -7 0 -279 -116 -480 -205 -125 -55 -229 -103 -400
-183 -139 -65 -686 -338 -825 -412 -106 -57 -143 -77 -315 -170 -33 -18 -91
-51 -130 -74 -38 -22 -81 -47 -95 -53 -14 -7 -43 -24 -65 -36 -22 -13 -58 -34
-80 -46 -376 -215 -1091 -673 -1450 -929 -55 -39 -122 -86 -148 -104 -27 -18
-54 -38 -60 -43 -7 -6 -28 -21 -47 -35 -175 -120 -828 -626 -1005 -779 -11 -9
-45 -37 -75 -61 -30 -25 -57 -47 -60 -50 -4 -4 -75 -65 -160 -136 -79 -67
-345 -303 -460 -408 -321 -295 -826 -793 -1075 -1060 -66 -71 -131 -141 -145
-155 -14 -15 -67 -73 -119 -131 -52 -58 -110 -123 -130 -145 -107 -119 -410
-474 -491 -574 -19 -24 -58 -71 -85 -105 -28 -34 -77 -95 -110 -136 -32 -41
-62 -77 -65 -80 -4 -3 -25 -30 -47 -60 -23 -30 -61 -80 -84 -110 -23 -30 -73
-95 -110 -145 -38 -49 -72 -94 -76 -100 -69 -88 -383 -526 -483 -675 -35 -52
-68 -99 -72 -105 -36 -43 -392 -599 -538 -840 -110 -182 -341 -583 -407 -705
-22 -41 -53 -97 -68 -125 -15 -27 -40 -72 -55 -100 -67 -121 -230 -440 -231
-452 -1 -5 -10 -20 -20 -35 -10 -14 -19 -33 -19 -41 0 -8 -7 -20 -15 -27 -8
-7 -15 -16 -15 -20 0 -4 -39 -88 -86 -186 -47 -99 -95 -199 -106 -224 -11 -25
-40 -87 -64 -138 -24 -52 -44 -95 -44 -97 0 -2 -14 -34 -31 -72 -17 -37 -39
-86 -49 -108 -10 -22 -48 -112 -85 -200 -37 -88 -73 -175 -81 -192 -8 -18 -21
-50 -29 -70 -7 -21 -28 -72 -45 -113 -17 -41 -63 -158 -102 -260 -38 -102 -80
-212 -93 -245 -12 -33 -30 -82 -40 -110 -9 -27 -21 -59 -26 -70 -30 -72 -213
-622 -290 -875 -179 -583 -391 -1416 -473 -1850 -2 -14 -16 -83 -30 -155 -14
-71 -28 -146 -31 -165 -3 -19 -8 -42 -10 -50 -5 -16 -7 -32 -30 -165 -9 -49
-18 -99 -19 -110 -5 -23 -14 -77 -21 -120 -3 -16 -8 -46 -10 -65 -3 -19 -8
-51 -11 -70 -9 -50 -11 -69 -19 -123 -4 -27 -8 -57 -10 -67 -4 -20 -42 -292
-49 -355 -3 -22 -7 -56 -10 -75 -2 -19 -7 -60 -11 -90 -3 -30 -10 -89 -16
-130 -5 -42 -12 -103 -14 -135 -3 -33 -7 -76 -10 -95 -3 -19 -7 -66 -11 -105
-3 -38 -7 -86 -9 -105 -2 -19 -7 -69 -10 -110 -4 -41 -8 -94 -10 -117 -2 -24
-7 -87 -10 -140 -4 -54 -8 -111 -10 -128 -2 -16 -7 -91 -10 -165 -4 -74 -9
-157 -10 -185 -27 -497 -27 -1584 0 -2024 3 -42 7 -119 10 -171 5 -106 12
-201 20 -305 3 -38 8 -95 10 -125 8 -96 16 -194 19 -225 2 -16 7 -66 10 -110
4 -44 9 -91 11 -105 2 -14 7 -54 10 -90 3 -36 7 -76 9 -90 3 -14 7 -56 11 -93
3 -37 8 -76 10 -85 1 -9 6 -44 9 -77 4 -33 9 -71 11 -85 2 -14 7 -43 9 -65 12
-98 27 -203 31 -225 2 -13 7 -46 10 -73 3 -27 12 -85 20 -130 7 -45 16 -99 19
-119 3 -21 9 -55 12 -75 3 -21 17 -101 30 -178 14 -77 27 -153 30 -170 2 -16
7 -41 10 -55 3 -14 8 -36 10 -50 2 -14 7 -41 11 -60 4 -19 8 -42 9 -50 3 -23
81 -398 94 -455 6 -27 13 -57 15 -65 2 -8 13 -58 25 -110 12 -52 23 -104 25
-115 46 -220 258 -1003 362 -1335 140 -446 413 -1228 473 -1355 5 -11 23 -56
40 -100 27 -72 43 -111 85 -210 7 -16 23 -55 35 -85 42 -101 48 -114 108 -255
33 -77 71 -165 85 -195 14 -30 49 -107 77 -170 216 -475 524 -1082 772 -1520
36 -63 76 -135 90 -160 52 -93 291 -491 363 -604 22 -35 60 -96 85 -136 70
-113 437 -662 527 -790 143 -203 133 -188 373 -510 159 -213 211 -280 419
-540 114 -142 304 -371 369 -445 15 -17 68 -78 117 -135 50 -58 99 -114 110
-126 11 -12 45 -49 75 -84 30 -34 60 -68 65 -74 269 -294 422 -454 730 -761
176 -176 374 -369 440 -430 65 -60 126 -117 136 -126 59 -58 426 -381 589
-520 623 -529 1234 -989 1905 -1434 363 -240 633 -408 990 -617 165 -96 210
-122 345 -196 25 -14 50 -28 55 -32 6 -4 55 -31 110 -60 55 -30 150 -80 210
-112 254 -136 796 -403 1030 -508 28 -12 75 -34 105 -47 30 -14 91 -41 135
-60 44 -20 98 -43 120 -53 22 -10 69 -30 105 -45 36 -15 84 -36 107 -46 24
-11 45 -19 48 -19 3 0 24 -9 48 -19 23 -11 119 -50 212 -86 94 -37 184 -73
200 -80 176 -77 1228 -441 1356 -470 8 -2 67 -19 130 -38 63 -19 123 -37 134
-40 11 -3 76 -22 145 -42 163 -47 646 -175 719 -190 22 -5 321 -74 346 -80 11
-3 117 -26 235 -51 265 -56 566 -114 715 -138 17 -3 71 -12 120 -21 101 -17
329 -53 390 -61 22 -2 51 -7 65 -9 41 -7 167 -25 218 -30 26 -3 58 -7 72 -10
14 -2 52 -7 85 -11 33 -4 71 -8 85 -10 14 -1 48 -5 75 -8 28 -3 64 -8 80 -11
17 -2 64 -7 105 -11 41 -3 83 -8 92 -9 9 -2 57 -7 105 -10 48 -4 99 -8 113
-10 14 -3 57 -7 95 -10 39 -3 93 -7 120 -10 28 -3 86 -7 130 -10 44 -3 107 -7
140 -9 468 -33 744 -41 1340 -41 447 0 794 7 1030 20 33 2 112 6 175 9 63 4
138 9 165 11 28 2 86 7 130 10 44 3 107 8 140 10 154 13 184 16 240 21 33 3
76 7 95 9 19 2 64 7 100 10 36 3 76 8 90 10 14 2 59 7 100 11 41 3 84 8 95 10
11 2 47 6 80 9 33 3 67 8 75 10 8 2 43 7 77 10 34 3 70 8 81 10 10 2 43 6 73
10 30 3 95 13 144 20 50 8 110 17 135 20 25 3 56 8 70 10 14 3 41 7 60 10 19
3 49 8 65 11 17 3 44 7 60 10 17 2 55 9 85 14 30 5 70 12 88 15 83 13 98 16
112 20 8 2 31 6 50 9 19 3 45 8 56 10 12 2 37 7 55 10 19 3 45 8 59 11 14 3
39 8 55 11 25 4 82 15 255 50 14 3 97 21 185 40 173 38 166 37 240 54 28 6 58
13 69 15 41 9 203 47 231 55 17 5 127 34 245 64 213 55 657 179 820 231 357
112 816 265 885 294 11 5 43 17 70 26 28 10 77 28 110 40 33 13 105 39 160 60
55 20 114 43 130 50 17 7 77 32 135 54 125 48 224 87 265 106 17 7 53 23 81
34 28 11 71 29 95 40 24 11 89 38 144 62 55 23 133 57 173 75 41 19 75 34 77
34 2 0 52 23 112 50 59 28 117 55 128 60 11 5 133 64 270 131 138 66 264 127
280 135 55 26 423 219 547 288 24 13 95 51 158 86 229 125 629 362 917 543 59
37 117 73 128 80 48 29 669 444 755 504 85 59 450 325 475 346 9 7 148 113
350 266 33 25 69 54 80 64 11 10 45 37 75 60 30 23 57 44 60 47 3 3 28 24 55
46 82 66 348 286 380 315 17 14 109 95 205 179 371 324 572 512 975 915 292
291 580 594 720 755 26 30 57 64 69 76 11 12 32 34 45 50 13 16 40 47 60 69
20 22 56 64 81 94 25 30 52 61 60 70 9 9 40 45 70 81 30 36 57 67 60 70 3 3
25 30 50 60 24 30 52 64 62 75 10 11 72 88 138 170 67 83 127 157 135 167 82
100 435 567 505 668 13 19 28 40 33 45 9 12 77 105 95 132 7 10 38 54 69 98
283 400 821 1250 996 1575 11 19 36 64 57 100 20 36 39 70 41 75 2 6 29 55 60
110 125 221 442 843 563 1105 157 340 162 352 288 645 252 586 501 1261 681
1845 104 336 155 505 162 539 2 9 15 57 30 106 54 186 219 851 251 1010 2 11
6 29 9 40 19 81 62 293 101 490 2 11 6 31 9 45 2 14 7 41 10 60 3 19 8 42 10
50 5 16 7 32 30 165 9 50 18 101 21 115 2 14 7 41 10 60 2 19 9 58 14 85 5 28
14 86 21 130 6 44 13 89 14 100 2 11 15 103 29 205 14 102 28 199 30 215 5 32
24 185 31 250 2 22 7 60 9 85 3 25 8 68 11 95 3 28 7 66 10 85 2 19 7 69 10
110 3 41 8 91 10 110 3 19 7 69 10 110 3 41 8 91 10 110 2 19 7 80 10 135 4
55 8 118 10 140 3 36 11 168 20 350 27 513 27 1591 0 2000 -2 39 -7 122 -10
185 -13 243 -31 473 -50 673 -3 30 -7 74 -9 98 -10 107 -18 186 -21 209 -4 27
-10 78 -30 268 -3 26 -8 65 -11 87 -10 69 -12 88 -19 140 -6 51 -20 153 -29
215 -32 213 -47 308 -50 325 -2 11 -7 40 -10 65 -3 25 -8 56 -11 70 -3 14 -10
52 -15 85 -5 33 -12 71 -15 85 -3 14 -10 52 -15 85 -12 67 -16 87 -66 340 -29
146 -70 342 -89 425 -16 71 -24 109 -28 130 -3 14 -10 45 -17 70 -7 25 -13 52
-15 60 -24 125 -214 851 -243 930 -3 8 -6 20 -7 25 -2 6 -15 51 -29 100 -15
50 -29 97 -31 105 -21 96 -274 850 -390 1165 -60 162 -116 312 -125 330 -5 11
-27 65 -48 120 -88 225 -249 605 -352 830 -10 22 -44 96 -75 165 -50 110 -291
610 -314 650 -4 8 -45 87 -91 175 -75 145 -119 228 -235 440 -159 292 -431
749 -638 1075 -127 198 -440 669 -479 720 -11 14 -46 63 -79 110 -32 47 -62
90 -67 95 -5 6 -26 35 -47 65 -21 30 -66 92 -99 137 -34 44 -70 94 -81 109
-11 15 -36 48 -55 73 -20 25 -74 96 -120 156 -166 217 -634 794 -669 825 -3 3
-46 52 -96 110 -49 58 -97 112 -105 120 -8 8 -30 33 -49 55 -62 73 -252 281
-421 459 -145 154 -679 686 -824 821 -71 66 -134 125 -140 131 -13 12 -214
194 -265 239 -19 16 -42 37 -51 45 -23 21 -163 143 -175 153 -5 4 -26 21 -45
38 -19 17 -87 74 -150 127 -63 53 -117 98 -120 101 -39 44 -613 491 -910 710
-223 164 -222 163 -370 268 -299 210 -1151 763 -1176 763 -3 0 -29 15 -57 34
-74 48 -374 221 -527 304 -36 20 -82 46 -102 59 -21 13 -40 23 -43 23 -3 0
-44 22 -92 48 -76 43 -173 93 -543 283 -84 43 -403 197 -495 239 -33 15 -87
40 -120 55 -132 60 -173 79 -250 112 -44 20 -98 43 -120 53 -63 28 -395 166
-534 222 -912 366 -2055 721 -2971 924 -334 73 -696 147 -885 179 -50 8 -92
16 -115 20 -14 3 -41 7 -60 10 -19 3 -42 8 -50 10 -8 2 -33 6 -55 10 -49 7
-75 11 -195 29 -52 8 -111 17 -130 20 -136 19 -342 48 -375 52 -22 2 -51 7
-65 9 -14 2 -52 7 -85 10 -33 3 -71 7 -85 10 -14 2 -55 7 -92 10 -37 3 -77 8
-90 10 -13 2 -58 6 -100 10 -42 3 -85 7 -95 9 -10 2 -56 7 -103 11 -47 3 -101
8 -120 10 -115 11 -222 19 -395 29 -66 4 -131 9 -145 11 -14 2 -104 7 -200 11
-96 4 -200 8 -230 10 -66 5 -1318 13 -1322 9z"/>
</g>
</svg>
