<svg id="Face" xmlns="http://www.w3.org/2000/svg" width="300" height="100" viewBox="0 0 1500 500">
  <metadata><?xpacket begin="﻿" id="W5M0MpCehiHzreSzNTczkc9d"?>
<x:xmpmeta xmlns:x="adobe:ns:meta/" x:xmptk="Adobe XMP Core 5.6-c142 79.160924, 2017/07/13-01:06:39        ">
   <rdf:RDF xmlns:rdf="http://www.w3.org/1999/02/22-rdf-syntax-ns#">
      <rdf:Description rdf:about=""/>
   </rdf:RDF>
</x:xmpmeta>
                                                                                                    
                                                                                                    
                                                                                                    
                                                                                                    
                                                                                                    
                                                                                                    
                                                                                                    
                                                                                                    
                                                                                                    
                                                                                                    
                                                                                                    
                                                                                                    
                                                                                                    
                                                                                                    
                                                                                                    
                                                                                                    
                                                                                                    
                                                                                                    
                                                                                                    
                                                                                                    
                           
<?xpacket end="w"?></metadata>
<defs>
    <style>
      .cls-1, .cls-6 {
        fill: #d2bca7;
      }

      .cls-1, .cls-8, .cls-9 {
        fill-rule: evenodd;
      }

      .cls-2 {
        fill: #d3b581;
      }

      .cls-3 {
        fill: #795c4e;
      }

      .cls-4 {
        fill: #af8e71;
      }

      .cls-5 {
        fill: #50454b;
      }

      .cls-7 {
        fill: #b85452;
      }

      .cls-8 {
        fill: #221f1f;
      }

      .cls-9 {
        fill: #dfd1c8;
      }
    </style>
  </defs>
  <path id="Otter" class="cls-1" d="M692.773,373.6c66.852,0,122.853-57.051,122.853-124.6s-56-124.252-122.853-124.252c-66.5,0-123.2,56.7-123.2,124.252S626.272,373.6,692.773,373.6Zm0-25.2c-51.8,0-95.551-45.5-95.551-99.4,0-53.551,43.75-99.052,95.551-99.052s95.2,45.5,95.2,99.052C787.975,302.9,744.574,348.4,692.773,348.4Zm247.1-5.6c-3.85,4.2-10.85,7.351-18.9,7.351-10.5,0-19.6-9.451-19.6-22.751V211.9H945.82v-23.45H901.369v-49.7h-26.25v49.7H846.768V211.9h28.351V327.4c0,26.951,18.2,46.2,44.1,46.2a55,55,0,0,0,33.6-11.55Zm129.5,0c-3.85,4.2-10.85,7.351-18.9,7.351-10.5,0-19.6-9.451-19.6-22.751V211.9h44.45v-23.45h-44.45v-49.7h-26.25v49.7H976.267V211.9h28.353V327.4c0,26.951,18.2,46.2,44.1,46.2a55,55,0,0,0,33.6-11.55Zm131.6,7.351c-35.7,0-60.55-25.9-64.4-61.251h148.05c0-63.352-31.15-104.652-85.75-104.652-48.65,0-89.26,40.25-89.26,94.151,0,55.651,43.41,95.2,91.71,95.2,25.2,0,57.05-10.85,72.8-28l-16.1-17.151C1246.82,340.7,1222.32,350.151,1200.97,350.151ZM1199.92,207.7c36.05,0,55.3,25.2,58.8,57.751h-121.8C1141.82,230.449,1167.72,207.7,1199.92,207.7Zm156.44,16.1v-35.35h-26.25V369.4h26.25V268.249c0-35.35,29.05-60.551,70-60.551v-23.45C1393.11,184.248,1367.21,199.648,1356.36,223.8Z"/>
  <circle id="Background" class="cls-2" cx="265" cy="249" r="225"/>
  <g id="Ears">
    <circle id="Right_Ear" data-name="Right Ear" class="cls-3" cx="367.703" cy="197.25" r="27.672"/>
    <circle id="Left_Ear" data-name="Left Ear" class="cls-3" cx="162.297" cy="197.25" r="27.672"/>
  </g>
  <rect id="Body" class="cls-4" x="130" y="158.313" width="270" height="204.75" rx="102.375" ry="102.375"/>
  <g id="Eyes">
    <rect id="Left_Eye" data-name="Left Eye" class="cls-5" x="187.375" y="231.344" width="18.438" height="30.156" rx="9.219" ry="9.219"/>
    <rect id="Right_Eye" data-name="Right Eye" class="cls-5" x="324.188" y="231.344" width="18.437" height="30.156" rx="9.219" ry="9.219"/>
  </g>
  <g id="Mouth">
    <rect id="Beard" class="cls-6" x="205.813" y="261.5" width="118.375" height="60.75" rx="30.375" ry="30.375"/>
    <ellipse id="Tongue" class="cls-7" cx="265" cy="301.36" rx="10.125" ry="8.266"/>
    <path id="Nose" class="cls-8" d="M294.235,302.806c-0.358.317-8.928,7.658-22.4,0.687-2.745-1.419-5.03-4.067-6.833-7.908-1.8,3.841-4.089,6.489-6.834,7.908-13.474,6.971-22.044-.37-22.4-0.687a3.694,3.694,0,0,1,4.835-5.585c0.29,0.236,5.415,4.238,14.182-.3,0.807-.417,2.544-1.772,4.187-5.992a10.475,10.475,0,0,1-6.543-6.843c-1.567-6.287,7.053-7.073,11.756-7.073,0.261,0,.535,0,0.818.008s0.557-.008.818-0.008c4.7,0,13.323.786,11.755,7.073a10.474,10.474,0,0,1-6.544,6.843c1.644,4.22,3.381,5.575,4.188,5.992,8.769,4.539,13.892.537,14.181,0.3A3.694,3.694,0,0,1,294.235,302.806Z"/>
  </g>
  <g id="Whiskers">
    <g id="Whiskers_Right" data-name="Whiskers Right">
      <path id="Bottom_Whisker" data-name="Bottom Whisker" class="cls-9" d="M444.075,332.137a1.64,1.64,0,0,0,.64-3.15,472.845,472.845,0,0,0-137.523-35.1,1.64,1.64,0,1,0-.326,3.264,469.527,469.527,0,0,1,136.57,34.86A1.627,1.627,0,0,0,444.075,332.137Z"/>
      <path id="Top_Whisker" data-name="Top Whisker" class="cls-9" d="M307.04,284.007a1.636,1.636,0,0,0,.534-0.09c1.7-.585,3.426-1.16,5.126-1.71,51.2-16.534,107.683-18.256,167.884-5.118a1.642,1.642,0,0,0,.7-3.209c-60.775-13.263-117.833-11.512-169.591,5.2-1.72.556-3.465,1.138-5.186,1.73A1.642,1.642,0,0,0,307.04,284.007Z"/>
    </g>
    <g id="Whiskers_Left" data-name="Whiskers Left">
      <path id="Bottom_Whisker-2" data-name="Bottom Whisker" class="cls-9" d="M85.965,332.137a1.64,1.64,0,0,1-.64-3.151A472.6,472.6,0,0,1,222.84,293.867a1.641,1.641,0,0,1,.325,3.265A469.386,469.386,0,0,0,86.6,332.007,1.623,1.623,0,0,1,85.965,332.137Z"/>
      <path id="Top_Whisker-2" data-name="Top Whisker" class="cls-9" d="M222.991,283.987a1.635,1.635,0,0,1-.533-0.09c-1.7-.586-3.426-1.161-5.126-1.71-51.195-16.542-107.677-18.265-167.874-5.121a1.643,1.643,0,0,1-.7-3.21c60.771-13.269,117.826-11.517,169.581,5.2,1.719,0.556,3.464,1.138,5.185,1.731A1.643,1.643,0,0,1,222.991,283.987Z"/>
    </g>
  </g>
</svg>
